<svg width="800" height="600" xmlns="http://www.w3.org/2000/svg">

 <g>
  <title>Layer 1</title>
  <path d="m193.59999,91.4c0,0 -0.04204,-0.13081 6,-2c13.90981,-4.30319 45.56139,-14.40864 65.99998,-20c19.67319,-5.38197 24.01511,-4.57467 30,-5c14.10657,-1.00252 37.70789,-3.61927 57,3c4.23007,1.45137 21.04416,5.87619 24,7c7.11862,2.7065 11.80765,4.45695 21,19c11.00183,17.40575 16.28412,36.13406 20,54.00001c1.67917,8.07344 6.99954,30.95459 8,64c0.30261,9.99541 2.83163,38.87314 -4,55.99998c-6.48105,16.24796 -17.22009,29.9317 -29,39c-16.04492,12.35156 -45.91553,20.27393 -52,22c-16.80127,4.76624 -29.02921,4.59122 -35,4c-15.22263,-1.50732 -29.50107,-6.46921 -41,-15c-9.67085,-7.17456 -14.85677,-19.07874 -26.99998,-41c-8.89546,-16.05835 -14.08452,-25.55063 -24,-41c-7.34657,-11.44673 -10.33633,-22.04424 -11,-26.99998c-1.5134,-11.30087 -5,-19 -7,-27c-2,-8 -2.50378,-14.01761 -3,-21c-0.50127,-7.05328 -1.24437,-10.01498 -1,-12c0.50377,-4.09221 1.46806,-5.33205 6,-12c7.19861,-10.59151 9.297,-15.61385 12,-18.00001c1.67633,-1.47984 4.29289,-4.29289 5,-5c1.41422,-1.41422 0,-3 1,-4l2,-4l0,0l2,-3" id="svg_1" stroke="#000" fill="none"/>
  <path d="m73.59999,124.4c0,0 0,0 0,5.00001c0,16 0,41 0,83.99998c0,32 -0.30195,61.09409 7,84c6.72315,21.09027 11.25655,33.34256 18,47c8.12743,16.46039 24.9792,45.07578 46,64c20.08009,18.07733 30.17741,26.15372 41,33c36.66225,23.19223 55.98354,22.21771 80.99998,24c31.98138,2.2785 75.07632,3.10507 112,0c35.10391,-2.95203 61.78308,-10.59543 77,-20c17.01303,-10.51462 28.8927,-25.07791 34,-32c15.67444,-21.24411 28.67889,-42.52368 35,-68c6.84949,-27.60587 12.20947,-52.96634 15,-71c3.24396,-20.9637 3.84491,-37.10982 2,-48c-3.44348,-20.3259 -10.82098,-35.07027 -16,-47.99998c-4.8338,-12.0679 -7.55115,-19.21321 -12,-28c-3.64185,-7.19284 -7.76141,-14.14183 -12,-21c-5.68665,-9.2012 -12.3096,-21.54871 -18,-28.00001c-11.70306,-13.26793 -18.00809,-16.99077 -26,-24c-10.84283,-9.50961 -14.66904,-8.57335 -23,-13c-8.69733,-4.62132 -23.87091,-10.69556 -49,-15c-13.93912,-2.38767 -47.75909,-9.22234 -60,-11c-22.78275,-3.30858 -46.9256,-1.87153 -76.99998,-4c-23.96089,-1.69579 -29,-1 -32,-1c-2,0 -6.94467,0.13254 -14,3c-12.9034,5.24426 -20.67525,9.38894 -23,11c-9.93137,6.88244 -33.45314,13.73143 -49,20c-4.14767,1.67236 -12.9183,7.11214 -17,10c-5.88671,4.16493 -11.60178,9.37329 -21,19c-17.29563,17.71613 -36.35221,37.39356 -48,66.00001c-4.29973,10.55994 -5.91752,17.0034 -6,18c-0.50171,6.06204 -1,13 -1,17l2,4l0,3" id="svg_2" stroke="#000" fill="none"/>
  <path d="m166.59999,196.40001c0,0 1.22548,1.32402 5,0c6.04218,-2.11948 22.619,-12.70465 70,-18c36.82472,-4.11557 72.0601,-5.24261 101.99998,-8c17.0451,-1.56981 31,-2 48,-4l14,-1l7,0l4,0" id="svg_3" stroke="#000" fill="none"/>
  <path d="m185.59999,275.39999c0,0 0.76825,-1.44208 10,-6c44.97661,-22.20596 80.84789,-29.29584 117.99998,-33c30.91119,-3.08192 58,-4 80,-4c10,0 41,0 50,1l2,0l1,0" id="svg_4" stroke="#000" fill="none"/>
 </g>
</svg>