<?xml version="1.0" standalone="no"?>
<!DOCTYPE svg PUBLIC "-//W3C//DTD SVG 1.1//EN" "http://www.w3.org/Graphics/SVG/1.1/DTD/svg11.dtd"><svg t="1694489059493"
    class="icon" viewBox="0 0 1024 1024" version="1.1" xmlns="http://www.w3.org/2000/svg" p-id="1055"
    xmlns:xlink="http://www.w3.org/1999/xlink" width="18" height="18">
    <path d="M512 514.5088m-436.2752 0a436.2752 436.2752 0 1 0 872.5504 0 436.2752 436.2752 0 1 0-872.5504 0Z"
        fill="#FFF7C5" p-id="1056"></path>
    <path
        d="M493.6192 797.5424L207.616 494.592a45.9776 45.9776 0 0 1-1.5872-61.3888L361.9328 249.856a45.9776 45.9776 0 0 1 35.072-16.1792h246.784a46.08 46.08 0 0 1 36.1984 17.6128l140.1856 178.5344a46.01344 46.01344 0 0 1-0.8704 57.9072l-256.8704 307.8144c-17.664 21.0944-49.8688 22.0672-68.8128 1.9968z"
        fill="#F9E230" p-id="1057"></path>
    <path
        d="M562.432 795.4432l246.784-295.7312-129.28-164.608a46.0032 46.0032 0 0 0-36.1984-17.6128h-246.784a46.0288 46.0288 0 0 0-35.072 16.2304L216.832 504.3712l276.7872 293.2224c18.944 20.0192 51.1488 19.0464 68.8128-2.1504z"
        fill="#F6DB2D" p-id="1058"></path>
    <path
        d="M562.432 795.4432l212.8384-255.0784-95.3344-121.344a46.0032 46.0032 0 0 0-36.1984-17.6128h-246.784a46.0288 46.0288 0 0 0-35.072 16.2304l-107.5712 126.464 239.2576 253.44c18.9952 20.0704 51.2 19.0976 68.864-2.0992z"
        fill="#F6DB2D" p-id="1059"></path>
    <path
        d="M562.432 795.4432l214.1184-256.5632-96.6144-123.0336a46.0032 46.0032 0 0 0-36.1984-17.6128h-246.784a46.0288 46.0288 0 0 0-35.072 16.2304L252.928 542.6176l240.6912 254.9248c18.944 20.0704 51.1488 19.0976 68.8128-2.0992z"
        fill="#F5D228" p-id="1060"></path>
    <path
        d="M562.432 795.4432l180.1728-215.9104L679.936 499.712a46.0032 46.0032 0 0 0-36.1984-17.6128h-246.784a46.0288 46.0288 0 0 0-35.072 16.2304l-71.424 84.0192 203.1616 215.1936c18.944 20.0704 51.1488 19.0976 68.8128-2.0992z"
        fill="#F2C824" p-id="1061"></path>
    <path
        d="M562.432 795.4432l146.2784-175.2576-28.7232-36.608a46.0032 46.0032 0 0 0-36.1984-17.6128h-246.784a46.0288 46.0288 0 0 0-35.072 16.2304l-33.8944 39.8848 165.632 175.4624c18.8928 20.0704 51.0976 19.0976 68.7616-2.0992z"
        fill="#F0BF21" p-id="1062"></path>
    <path
        d="M522.3936 677.7856c-9.0112 0-17.5616-3.9424-23.3984-10.8032l-130.7648-153.7024c-11.008-12.9024-9.4208-32.3072 3.4816-43.3152 12.9024-11.008 32.3072-9.4208 43.3152 3.4816l107.4176 126.208 107.5712-126.2592a30.73536 30.73536 0 0 1 43.3152-3.4304 30.73536 30.73536 0 0 1 3.4304 43.3152l-130.9696 153.7024a30.70464 30.70464 0 0 1-23.3984 10.8032z"
        fill="#FFFFFF" p-id="1063"></path>
</svg>